<svg width="375" height="431" viewBox="0 0 375 431" fill="none" xmlns="http://www.w3.org/2000/svg">
<path d="M305.977 286.961C305.977 292.43 304.935 297.638 302.852 302.586C300.768 307.404 297.904 311.635 294.258 315.281C290.612 318.927 286.315 321.792 281.367 323.875C276.549 325.958 271.406 327 265.937 327H205.977V378.953H165.937V327H105.977C100.508 327 95.2995 325.958 90.3515 323.875C85.5338 321.792 81.3021 318.927 77.6562 315.281C74.0104 311.635 71.1458 307.404 69.0625 302.586C66.9792 297.638 65.9375 292.43 65.9375 286.961V86.9609C65.9375 81.4922 66.9792 76.349 69.0625 71.5312C71.1458 66.5833 74.0104 62.3516 77.6562 58.8359C81.3021 55.1901 85.5338 52.3255 90.3515 50.2422C95.2995 48.0286 100.508 46.9219 105.977 46.9219H265.937C271.406 46.9219 276.549 48.0286 281.367 50.2422C286.315 52.3255 290.612 55.1901 294.258 58.8359C297.904 62.3516 300.768 66.5833 302.852 71.5312C304.935 76.349 305.977 81.4922 305.977 86.9609V286.961ZM205.977 254.539V286.961H265.937V86.9609H105.977V286.961H165.937V254.539H205.977Z" fill="#C71585" fill-opacity="0.79"/>
<rect x="14.0984" y="10.9025" width="349.945" height="406.292" rx="67" transform="rotate(0.56119 14.0984 10.9025)" stroke="#C4C4C4" stroke-opacity="0.64" stroke-width="20"/>
</svg>
