<svg width="200" height="200" viewBox="0 0 200 200" fill="none" xmlns="http://www.w3.org/2000/svg">
<rect width="200" height="200" fill="white"/>
<path d="M98 98H48V53C48 50.2386 50.2386 48 53 48H98V98Z" fill="black"/>
<path d="M78 73C75.2386 73 73 70.7614 73 68L73 53C73 50.2386 75.2386 48 78 48L98 48L98 73L78 73Z" fill="white"/>
<path d="M153 98H103V53C103 50.2386 105.239 48 108 48H153V98Z" fill="black"/>
<path d="M133 73C130.239 73 128 70.7614 128 68L128 53C128 50.2386 130.239 48 133 48L153 48L153 73L133 73Z" fill="white"/>
<path d="M103 103H153V148C153 150.761 150.761 153 148 153H103V103Z" fill="black"/>
<path d="M123 128C125.761 128 128 130.239 128 133L128 148C128 150.761 125.761 153 123 153L103 153L103 128L123 128Z" fill="white"/>
<path d="M48 103H98V148C98 150.761 95.7614 153 93 153H48V103Z" fill="black"/>
<path d="M68 128C70.7614 128 73 130.239 73 133L73 148C73 150.761 70.7614 153 68 153L48 153L48 128L68 128Z" fill="white"/>
</svg>
