<svg width="1080" height="1080" viewBox="0 0 1080 1080" fill="none" xmlns="http://www.w3.org/2000/svg">
<path d="M319.616 491.406C318.737 491.406 317.858 491.377 316.979 491.318C316.1 491.26 315.25 491.172 314.43 491.055C317.711 491.934 321.315 493.164 325.241 494.746C329.225 496.387 333.326 498.174 337.545 500.107C341.764 502.041 346.012 504.004 350.289 505.996C354.625 507.988 358.756 509.805 362.682 511.445C366.666 513.086 370.358 514.404 373.756 515.4C377.155 516.455 380.114 516.982 382.633 516.982C384.86 516.982 386.735 516.719 388.258 516.191C389.84 515.723 391.1 515.107 392.037 514.346C393.034 513.643 393.766 512.822 394.235 511.885C394.762 511.006 395.084 510.127 395.201 509.248L397.926 509.775C397.633 513.115 396.959 516.309 395.905 519.355C394.909 522.402 393.473 525.068 391.598 527.354C389.723 529.697 387.409 531.543 384.655 532.891C381.901 534.297 378.649 535 374.899 535C371.735 535 368.014 534.238 363.737 532.715C359.459 531.191 354.889 529.287 350.026 527.002C345.221 524.775 340.27 522.344 335.172 519.707C330.133 517.07 325.211 514.609 320.407 512.324C315.66 510.098 311.207 508.223 307.047 506.699C302.887 505.176 299.284 504.414 296.237 504.414C292.662 504.414 290.201 505.908 288.854 508.896L286.129 508.018C286.188 507.314 286.393 506.377 286.744 505.205C287.096 504.092 287.594 502.861 288.239 501.514C288.942 500.225 289.821 498.906 290.875 497.559C291.93 496.211 293.16 494.98 294.567 493.867C296.032 492.812 297.701 491.904 299.576 491.143C301.51 490.439 303.707 490.059 306.168 490C300.016 488.652 294.274 486.338 288.942 483.057C283.61 479.775 278.981 475.469 275.055 470.137C271.129 464.746 268.024 458.33 265.739 450.889C263.512 443.389 262.399 434.775 262.399 425.049C262.399 413.623 263.922 403.75 266.969 395.43C270.075 387.051 274.235 380.137 279.45 374.688C284.664 369.238 290.729 365.195 297.643 362.559C304.616 359.922 311.94 358.604 319.616 358.604C327.291 358.604 334.586 359.922 341.5 362.559C348.414 365.195 354.479 369.238 359.694 374.688C364.967 380.137 369.127 387.051 372.174 395.43C375.28 403.75 376.832 413.623 376.832 425.049C376.832 436.475 375.28 446.377 372.174 454.756C369.127 463.076 364.967 469.961 359.694 475.41C354.479 480.801 348.414 484.814 341.5 487.451C334.586 490.088 327.291 491.406 319.616 491.406ZM319.616 365.635C318.209 365.635 316.569 365.869 314.694 366.338C312.877 366.748 310.973 367.686 308.981 369.15C307.047 370.557 305.114 372.578 303.18 375.215C301.246 377.852 299.518 381.367 297.994 385.762C296.53 390.156 295.328 395.576 294.391 402.021C293.453 408.408 292.985 416.084 292.985 425.049C292.985 433.955 293.453 441.602 294.391 447.988C295.328 454.316 296.53 459.648 297.994 463.984C299.518 468.262 301.246 471.689 303.18 474.268C305.114 476.787 307.047 478.721 308.981 480.068C310.973 481.357 312.877 482.207 314.694 482.617C316.569 482.969 318.209 483.145 319.616 483.145C320.963 483.145 322.575 482.969 324.45 482.617C326.325 482.207 328.229 481.357 330.162 480.068C332.155 478.721 334.118 476.787 336.051 474.268C337.985 471.689 339.684 468.262 341.149 463.984C342.672 459.648 343.903 454.316 344.84 447.988C345.778 441.66 346.246 434.014 346.246 425.049C346.246 416.084 345.778 408.408 344.84 402.021C343.903 395.576 342.672 390.156 341.149 385.762C339.684 381.367 337.985 377.852 336.051 375.215C334.118 372.578 332.155 370.557 330.162 369.15C328.229 367.686 326.325 366.748 324.45 366.338C322.575 365.869 320.963 365.635 319.616 365.635ZM471.842 474.707C471.842 475.234 471.871 475.82 471.93 476.465C471.989 477.051 472.135 477.637 472.369 478.223C472.604 478.75 472.955 479.189 473.424 479.541C473.893 479.893 474.567 480.068 475.446 480.068C476.559 480.068 477.555 479.688 478.434 478.926C479.313 478.105 480.133 477.285 480.895 476.465L483.004 478.311C482.125 479.541 481.012 480.918 479.664 482.441C478.375 483.906 476.793 485.312 474.918 486.66C473.043 488.008 470.905 489.121 468.502 490C466.1 490.938 463.375 491.406 460.328 491.406C457.75 491.406 455.494 491.055 453.561 490.352C451.686 489.707 450.075 488.828 448.727 487.715C447.438 486.543 446.471 485.195 445.826 483.672C445.182 482.09 444.86 480.42 444.86 478.662V474.707C441.93 477.871 438.854 480.654 435.631 483.057C434.225 484.111 432.731 485.137 431.149 486.133C429.567 487.129 427.926 488.037 426.227 488.857C424.528 489.619 422.77 490.234 420.953 490.703C419.137 491.172 417.321 491.406 415.504 491.406C411.989 491.406 408.971 490.791 406.451 489.561C403.991 488.271 401.998 486.602 400.475 484.551C398.951 482.5 397.838 480.186 397.135 477.607C396.432 475.029 396.08 472.451 396.08 469.873V415.469C396.08 414.941 396.051 414.385 395.993 413.799C395.934 413.154 395.787 412.568 395.553 412.041C395.319 411.455 394.967 410.986 394.498 410.635C394.03 410.283 393.356 410.107 392.477 410.107C391.422 410.107 390.426 410.518 389.489 411.338C388.61 412.1 387.819 412.891 387.116 413.711L384.918 411.865C385.797 410.635 386.881 409.287 388.17 407.822C389.518 406.299 391.129 404.863 393.004 403.516C394.879 402.168 397.018 401.055 399.42 400.176C401.881 399.238 404.606 398.77 407.594 398.77C410.172 398.77 412.428 399.121 414.362 399.824C416.295 400.469 417.907 401.377 419.196 402.549C420.485 403.662 421.451 405.01 422.096 406.592C422.741 408.115 423.063 409.756 423.063 411.514V470.225C423.063 471.045 423.18 471.895 423.414 472.773C423.707 473.594 424.088 474.355 424.557 475.059C425.084 475.762 425.729 476.348 426.491 476.816C427.252 477.227 428.16 477.432 429.215 477.432C430.914 477.432 432.614 476.992 434.313 476.113C436.012 475.234 437.565 474.209 438.971 473.037C440.377 471.807 441.578 470.605 442.575 469.434C443.629 468.262 444.391 467.383 444.86 466.797V415.469C444.86 414.941 444.83 414.385 444.772 413.799C444.713 413.154 444.567 412.568 444.332 412.041C444.098 411.455 443.746 410.986 443.278 410.635C442.809 410.283 442.135 410.107 441.256 410.107C440.201 410.107 439.205 410.518 438.268 411.338C437.389 412.1 436.598 412.891 435.895 413.711L433.698 411.865C434.576 410.635 435.66 409.287 436.95 407.822C438.297 406.299 439.909 404.863 441.784 403.516C443.659 402.168 445.797 401.055 448.2 400.176C450.66 399.238 453.385 398.77 456.373 398.77C458.951 398.77 461.207 399.121 463.141 399.824C465.075 400.469 466.686 401.377 467.975 402.549C469.264 403.662 470.231 405.01 470.875 406.592C471.52 408.115 471.842 409.756 471.842 411.514V474.707ZM489.42 445C489.42 437.324 490.534 430.615 492.76 424.873C494.987 419.072 497.946 414.238 501.637 410.371C505.387 406.504 509.723 403.604 514.645 401.67C519.567 399.736 524.723 398.77 530.114 398.77C535.504 398.77 540.66 399.678 545.582 401.494C550.504 403.252 554.811 405.977 558.502 409.668C562.252 413.359 565.241 418.047 567.467 423.73C569.694 429.355 570.807 436.035 570.807 443.77C570.807 451.445 569.694 458.242 567.467 464.16C565.241 470.078 562.252 475.059 558.502 479.102C554.811 483.145 550.504 486.221 545.582 488.33C540.66 490.381 535.504 491.406 530.114 491.406C524.723 491.406 519.567 490.439 514.645 488.506C509.723 486.514 505.387 483.584 501.637 479.717C497.946 475.85 494.987 471.016 492.76 465.215C490.534 459.414 489.42 452.676 489.42 445ZM543.473 444.121C543.473 439.434 543.297 434.922 542.946 430.586C542.653 426.191 542.037 422.295 541.1 418.896C540.162 415.498 538.815 412.803 537.057 410.811C535.299 408.76 532.985 407.734 530.114 407.734C527.243 407.734 524.928 408.818 523.17 410.986C521.412 413.096 520.065 415.908 519.127 419.424C518.19 422.881 517.575 426.836 517.282 431.289C516.989 435.742 516.842 440.312 516.842 445C516.842 449.688 516.989 454.287 517.282 458.799C517.575 463.252 518.19 467.236 519.127 470.752C520.065 474.268 521.412 477.109 523.17 479.277C524.928 481.387 527.243 482.441 530.114 482.441C532.985 482.441 535.299 481.328 537.057 479.102C538.815 476.875 540.162 473.945 541.1 470.312C542.037 466.68 542.653 462.578 542.946 458.008C543.297 453.438 543.473 448.809 543.473 444.121ZM615.807 406.328V471.279C615.807 474.385 616.393 476.553 617.565 477.783C618.737 478.955 620.348 479.541 622.399 479.541C623.981 479.541 625.387 479.102 626.618 478.223C627.848 477.344 628.903 476.348 629.782 475.234C630.836 474.004 631.744 472.568 632.506 470.928L635.231 472.158C634.352 474.033 633.297 476.084 632.067 478.311C630.895 480.537 629.313 482.617 627.321 484.551C625.328 486.426 622.809 488.008 619.762 489.297C616.774 490.586 612.994 491.23 608.424 491.23C605.846 491.23 603.356 490.85 600.953 490.088C598.61 489.326 596.5 488.125 594.625 486.484C592.809 484.844 591.344 482.793 590.231 480.332C589.118 477.871 588.561 474.912 588.561 471.455V406.328H578.717V400C580.358 400 582.643 399.59 585.573 398.77C588.502 397.891 591.491 396.455 594.537 394.463C597.643 392.471 600.514 389.805 603.151 386.465C605.787 383.125 607.662 378.994 608.776 374.072H615.807V400H630.133C634.821 400 637.164 399.209 637.164 397.627C637.164 397.041 636.871 396.66 636.285 396.484C635.7 396.25 635.026 395.986 634.264 395.693C633.561 395.342 632.916 394.873 632.33 394.287C631.744 393.701 631.451 392.734 631.451 391.387C631.451 389.746 631.95 388.457 632.946 387.52C634 386.582 635.348 386.113 636.989 386.113C638.043 386.113 638.951 386.348 639.713 386.816C640.534 387.227 641.207 387.812 641.735 388.574C642.262 389.277 642.643 390.098 642.877 391.035C643.17 391.973 643.317 392.91 643.317 393.848C643.317 397.656 642.203 400.703 639.977 402.988C637.809 405.215 634.293 406.328 629.43 406.328H615.807ZM677.77 482.09C677.77 482.852 677.623 483.789 677.33 484.902C677.096 485.957 676.481 486.982 675.485 487.979C674.547 488.916 673.17 489.707 671.354 490.352C669.537 491.055 667.076 491.406 663.971 491.406C660.866 491.406 658.434 491.025 656.676 490.264C654.918 489.561 653.6 488.711 652.721 487.715C651.842 486.719 651.285 485.693 651.051 484.639C650.875 483.584 650.787 482.734 650.787 482.09V414.238C650.787 412.539 650.377 411.074 649.557 409.844C648.795 408.555 647.477 407.91 645.602 407.91C644.606 407.91 643.756 408.086 643.053 408.438C642.35 408.789 641.588 409.287 640.768 409.932L638.922 407.734C640.27 406.621 641.764 405.537 643.405 404.482C645.104 403.369 646.92 402.402 648.854 401.582C650.787 400.762 652.868 400.088 655.094 399.561C657.321 399.033 659.664 398.77 662.125 398.77C665.934 398.77 668.893 399.297 671.002 400.352C673.112 401.348 674.664 402.607 675.66 404.131C676.657 405.596 677.243 407.178 677.418 408.877C677.653 410.576 677.77 412.07 677.77 413.359V482.09ZM648.063 378.73C648.063 377.09 648.414 375.537 649.118 374.072C649.879 372.549 650.905 371.23 652.194 370.117C653.541 369.004 655.065 368.125 656.764 367.48C658.522 366.836 660.426 366.514 662.477 366.514C664.469 366.514 666.315 366.836 668.014 367.48C669.772 368.125 671.295 369.004 672.584 370.117C673.873 371.23 674.869 372.549 675.573 374.072C676.334 375.537 676.715 377.09 676.715 378.73C676.715 380.43 676.334 382.012 675.573 383.477C674.869 384.941 673.873 386.23 672.584 387.344C671.295 388.398 669.772 389.248 668.014 389.893C666.315 390.537 664.469 390.859 662.477 390.859C660.426 390.859 658.522 390.537 656.764 389.893C655.065 389.248 653.541 388.398 652.194 387.344C650.905 386.23 649.879 384.941 649.118 383.477C648.414 382.012 648.063 380.43 648.063 378.73ZM743.336 359.307C741.696 359.307 740.143 359.658 738.678 360.361C737.213 361.064 735.924 362.207 734.811 363.789C733.756 365.312 732.907 367.275 732.262 369.678C731.618 372.08 731.295 374.98 731.295 378.379V400H750.543V406.328H731.295V475.586C731.295 483.555 730.241 490.908 728.131 497.646C726.08 504.385 722.946 510.186 718.727 515.049C714.508 519.971 709.235 523.809 702.907 526.562C696.578 529.316 689.196 530.693 680.758 530.693C677.77 530.693 674.899 530.43 672.145 529.902C669.391 529.434 666.959 528.76 664.85 527.881C662.741 527.002 661.071 525.947 659.84 524.717C658.551 523.545 657.907 522.227 657.907 520.762C657.907 519.707 658.053 518.623 658.346 517.51C658.639 516.455 659.078 515.488 659.664 514.609C660.25 513.73 660.983 512.998 661.862 512.412C662.682 511.885 663.649 511.621 664.762 511.621C665.407 511.621 665.993 511.943 666.52 512.588C666.989 513.232 667.487 514.023 668.014 514.961C668.541 515.898 669.157 516.924 669.86 518.037C670.504 519.209 671.354 520.264 672.409 521.201C673.463 522.139 674.782 522.93 676.364 523.574C677.887 524.219 679.762 524.541 681.989 524.541C684.977 524.541 687.614 523.926 689.899 522.695C692.184 521.523 694.147 519.883 695.787 517.773C697.428 515.664 698.805 513.174 699.918 510.303C701.032 507.432 701.91 504.355 702.555 501.074C703.2 497.793 703.639 494.365 703.873 490.791C704.166 487.217 704.313 483.643 704.313 480.068V406.328H688.141V400H704.313V389.717C704.313 384.561 704.928 380.078 706.159 376.27C707.448 372.402 709.118 369.121 711.168 366.426C713.278 363.73 715.651 361.533 718.287 359.834C720.924 358.135 723.59 356.787 726.285 355.791C729.039 354.795 731.705 354.121 734.284 353.77C736.862 353.418 739.118 353.242 741.051 353.242C745.211 353.242 748.903 353.564 752.125 354.209C755.348 354.795 758.043 355.615 760.211 356.67C762.379 357.666 764.02 358.838 765.133 360.186C766.246 361.533 766.803 362.91 766.803 364.316C766.803 365.371 766.627 366.455 766.276 367.568C765.983 368.623 765.543 369.619 764.957 370.557C764.371 371.436 763.639 372.168 762.76 372.754C761.94 373.281 761.002 373.545 759.948 373.545C759.303 373.545 758.717 373.193 758.19 372.49C757.662 371.787 757.106 370.908 756.52 369.854C755.934 368.799 755.289 367.656 754.586 366.426C753.883 365.195 753.004 364.053 751.95 362.998C750.953 361.943 749.752 361.064 748.346 360.361C746.94 359.658 745.27 359.307 743.336 359.307ZM828.59 412.568C828.59 423.291 827.535 433.662 825.426 443.682C823.375 453.643 820.504 463.018 816.813 471.807C813.18 480.537 808.844 488.506 803.805 495.713C798.766 502.979 793.287 509.189 787.369 514.346C781.451 519.502 775.182 523.516 768.561 526.387C761.998 529.258 755.348 530.693 748.61 530.693C743.453 530.693 739.469 529.814 736.657 528.057C733.844 526.357 732.438 524.043 732.438 521.113C732.438 520 732.614 518.916 732.965 517.861C733.317 516.807 733.785 515.869 734.371 515.049C734.957 514.229 735.66 513.555 736.481 513.027C737.301 512.559 738.18 512.324 739.118 512.324C740.231 512.324 741.168 512.881 741.93 513.994C742.633 515.107 743.395 516.309 744.215 517.598C745.035 518.945 746.032 520.176 747.203 521.289C748.375 522.402 749.987 522.959 752.037 522.959C754.674 522.959 757.428 522.49 760.299 521.553C763.17 520.674 766.041 519.385 768.912 517.686C771.842 515.986 774.743 513.906 777.614 511.445C780.543 509.043 783.414 506.348 786.227 503.359C784.586 497.441 782.682 490.996 780.514 484.023C778.405 476.992 776.149 469.932 773.746 462.842C771.403 455.752 768.971 448.926 766.451 442.363C763.991 435.742 761.559 429.883 759.157 424.785C756.813 419.688 754.528 415.615 752.301 412.568C750.133 409.463 748.2 407.91 746.5 407.91C745.387 407.91 744.537 408.086 743.951 408.438C743.307 408.789 742.575 409.287 741.754 409.932L739.996 407.734C741.168 406.738 742.399 405.713 743.688 404.658C744.977 403.604 746.5 402.637 748.258 401.758C750.016 400.879 752.067 400.176 754.41 399.648C756.754 399.062 759.567 398.77 762.848 398.77C766.422 398.77 769.733 399.59 772.78 401.23C775.885 402.812 778.698 405.771 781.217 410.107C783.034 413.33 784.909 417.197 786.842 421.709C788.834 426.221 790.826 431.26 792.819 436.826C794.811 442.393 796.803 448.428 798.795 454.932C800.846 461.377 802.897 468.145 804.948 475.234C808.58 467.617 811.51 459.561 813.737 451.064C815.963 442.51 817.076 433.721 817.076 424.697C817.076 421.475 816.871 418.721 816.461 416.436C816.051 414.15 815.582 412.217 815.055 410.635C814.528 408.994 814.059 407.617 813.649 406.504C813.239 405.332 813.034 404.307 813.034 403.428C813.034 402.549 813.385 401.816 814.088 401.23C814.791 400.586 815.641 400.088 816.637 399.736C817.633 399.385 818.629 399.15 819.625 399.033C820.68 398.857 821.559 398.77 822.262 398.77C823.844 398.77 825.045 399.092 825.866 399.736C826.744 400.381 827.389 401.318 827.799 402.549C828.209 403.721 828.444 405.156 828.502 406.855C828.561 408.555 828.59 410.459 828.59 412.568Z" fill="#059669"/>
<path d="M612.2 603.333C744.562 603.333 810.761 603.333 851.863 578.917C893 554.521 893 515.229 893 436.667C893 358.104 893 318.813 851.863 294.417C810.761 270 744.562 270 612.2 270H471.8C339.438 270 273.239 270 232.137 294.417C191 318.813 191 358.104 191 436.667C191 515.229 191 554.521 232.137 578.917C255.057 592.542 285.77 598.563 331.4 601.208" stroke="#059669" stroke-width="41.6667" stroke-linecap="round" stroke-linejoin="round"/>
<path d="M612.2 603.333C568.816 603.333 521.01 613.75 477.381 627.188C407.251 648.792 372.186 659.604 354.917 652.708C337.648 645.833 340.912 624.479 347.476 581.792L348.95 572.083" stroke="#059669" stroke-width="41.6667" stroke-linecap="round"/>
</svg>
